<svg xmlns="http://www.w3.org/2000/svg" width="25" height="24" viewBox="0 0 25 24" >
  <path d="M22.314 2.52204C22.3061 2.48357 22.2873 2.44818 22.2599 2.42003C22.2325 2.39188 22.1976 2.37214 22.1593 2.36314C19.6103 1.7397 13.7218 3.9611 10.5283 7.15235C9.95908 7.71685 9.4401 8.32978 8.97716 8.98423C7.99278 8.89517 7.00841 8.97017 6.17028 9.33579C3.80357 10.3764 3.11497 13.0942 2.92278 14.2609C2.91237 14.3249 2.91682 14.3903 2.93578 14.4523C2.95475 14.5142 2.98772 14.5709 3.03214 14.6181C3.07656 14.6652 3.13124 14.7015 3.19194 14.7241C3.25264 14.7467 3.31772 14.755 3.38216 14.7484L7.18232 14.3313C7.18494 14.6179 7.20215 14.9042 7.23388 15.1891C7.25371 15.386 7.34156 15.5698 7.48232 15.7089L8.95372 17.1803C9.09296 17.3212 9.27697 17.409 9.47403 17.4288C9.7572 17.4603 10.0418 17.4775 10.3267 17.4803L9.90997 21.2772C9.90347 21.3415 9.91184 21.4065 9.93446 21.4671C9.95707 21.5277 9.99332 21.5823 10.0404 21.6267C10.0875 21.671 10.1441 21.704 10.2059 21.7229C10.2678 21.7419 10.3332 21.7464 10.397 21.7361C11.5642 21.5486 14.2876 20.86 15.3222 18.4938C15.6878 17.6547 15.7628 16.6755 15.6784 15.6958C16.3348 15.2333 16.9495 14.7143 17.5154 14.1447C20.7208 10.9572 22.9281 5.19814 22.314 2.52204ZM14.6664 10.0155C14.3864 9.73557 14.1957 9.37893 14.1185 8.99065C14.0412 8.60237 14.0808 8.1999 14.2323 7.83414C14.3838 7.46838 14.6403 7.15575 14.9695 6.93579C15.2986 6.71584 15.6856 6.59844 16.0815 6.59844C16.4774 6.59844 16.8644 6.71584 17.1936 6.93579C17.5228 7.15575 17.7793 7.46838 17.9308 7.83414C18.0823 8.1999 18.1219 8.60237 18.0446 8.99065C17.9673 9.37893 17.7767 9.73557 17.4967 10.0155C17.311 10.2016 17.0904 10.3492 16.8476 10.4499C16.6047 10.5507 16.3444 10.6025 16.0815 10.6025C15.8186 10.6025 15.5583 10.5507 15.3155 10.4499C15.0727 10.3492 14.8521 10.2016 14.6664 10.0155Z" stroke="#1E1E1E" stroke-width="1.5" stroke-linecap="round" stroke-linejoin="round"/>
  <path d="M5.80606 16.5C5.33877 16.5574 4.90404 16.7692 4.57091 17.1019C3.74497 17.9306 3.66669 21 3.66669 21C3.66669 21 6.73794 20.9217 7.56434 20.0948C7.89836 19.7622 8.11056 19.3268 8.16669 18.8588" stroke="#1E1E1E" stroke-width="1.5" stroke-linecap="round" stroke-linejoin="round"/>
</svg>