<svg xmlns="http://www.w3.org/2000/svg" width="16" height="16" viewBox="0 0 16 16" fill="none">
  <g clip-path="url(#clip0_233_612)">
    <path d="M7.28582 11.23H7.28593C7.35005 11.2301 7.41351 11.2171 7.47252 11.1921C7.53153 11.167 7.58487 11.1303 7.62935 11.0841L7.62936 11.0841L14.4731 3.99032L14.4734 3.99007C14.7984 3.66301 14.9806 3.22046 14.9799 2.75935C14.9793 2.29826 14.7959 1.85622 14.47 1.53006C14.143 1.20399 13.7001 1.02087 13.2383 1.02087C12.7765 1.02087 12.3335 1.20399 12.0065 1.53006C12.0006 1.53604 11.9947 1.54217 11.9893 1.54848L11.989 1.54882L11.989 1.54881L5.39246 8.89565L7.28582 11.23ZM7.28582 11.23C7.23611 11.2302 7.18669 11.2225 7.13942 11.2071L7.13938 11.2071M7.28582 11.23L7.13938 11.2071M7.13938 11.2071C7.0543 11.1796 6.97868 11.1287 6.92116 11.0602C6.86365 10.9917 6.82655 10.9085 6.81413 10.8199L6.81412 10.8198M7.13938 11.2071L6.81412 10.8198M6.81412 10.8198C6.77953 10.5785 6.61995 10.3205 6.40529 10.1102M6.81412 10.8198L6.40529 10.1102M6.40529 10.1102C6.19044 9.89974 5.9173 9.73401 5.65129 9.67989M6.40529 10.1102L5.65129 9.67989M5.65129 9.67989C5.5693 9.66294 5.49322 9.62468 5.43072 9.56897C5.36822 9.51326 5.32149 9.44207 5.29525 9.36257C5.26901 9.28306 5.26418 9.19804 5.28124 9.11607C5.29831 9.03412 5.33665 8.95811 5.39242 8.89569L5.65129 9.67989Z" fill="white" stroke="white" stroke-width="0.046875"/>
    <path d="M1.11375 13.6457C1.06109 13.5748 1.02917 13.4907 1.02155 13.4027C1.01393 13.3147 1.03092 13.2263 1.07062 13.1474C1.11032 13.0685 1.17117 13.0022 1.24637 12.9558C1.32157 12.9095 1.40817 12.885 1.49649 12.885H1.4965C1.58501 12.885 1.7461 12.8453 1.88545 12.7431C2.02593 12.6399 2.14494 12.4726 2.14494 12.2188C2.14494 11.0105 3.11597 10.0278 4.309 10.0278C5.50204 10.0278 6.47306 11.0105 6.47306 12.2188C6.47306 13.7411 5.24953 14.98 3.7465 14.98C2.74965 14.98 1.71565 14.4558 1.11375 13.6457ZM1.11375 13.6457L1.09494 13.6597L1.11375 13.6457Z" fill="white" stroke="white" stroke-width="0.046875"/>
  </g>
  <defs>
    <clipPath id="clip0_233_612">
      <rect width="16" height="16" fill="white"/>
    </clipPath>
  </defs>
</svg>