<svg xmlns="http://www.w3.org/2000/svg" width="25" height="24" viewBox="0 0 25 24" fill="none">
  <path d="M21.0005 6.38909C21.0288 6.37258 21.0523 6.34894 21.0686 6.32052C21.0849 6.29211 21.0935 6.25991 21.0935 6.22714C21.0935 6.19437 21.0849 6.16218 21.0686 6.13376C21.0523 6.10534 21.0288 6.0817 21.0005 6.06519L13.8408 1.9055C13.3827 1.63996 12.8626 1.50012 12.3331 1.50012C11.8036 1.50012 11.2834 1.63996 10.8253 1.9055L3.66705 6.06519C3.63875 6.0817 3.61526 6.10534 3.59894 6.13376C3.58262 6.16218 3.57404 6.19437 3.57404 6.22714C3.57404 6.25991 3.58262 6.29211 3.59894 6.32052C3.61526 6.34894 3.63875 6.37258 3.66705 6.38909L12.2396 11.4319C12.2684 11.4489 12.3012 11.4578 12.3347 11.4578C12.3682 11.4578 12.401 11.4489 12.4299 11.4319L21.0005 6.38909Z" fill="#1E1E1E"/>
  <path d="M2.86457 7.6644C2.83597 7.6479 2.80353 7.63923 2.77051 7.63928C2.7375 7.63934 2.70508 7.64811 2.67654 7.66471C2.648 7.68131 2.62435 7.70515 2.60798 7.73382C2.59161 7.7625 2.5831 7.79498 2.58332 7.828V15.9791C2.58402 16.3719 2.68755 16.7577 2.8836 17.098C3.07966 17.4384 3.3614 17.7215 3.70082 17.9192L11.3021 22.4769C11.3306 22.4934 11.3629 22.502 11.3958 22.502C11.4287 22.502 11.461 22.4934 11.4895 22.477C11.518 22.4605 11.5417 22.4369 11.5581 22.4084C11.5746 22.3799 11.5833 22.3476 11.5833 22.3147V12.8577C11.5833 12.8248 11.5746 12.7925 11.5581 12.764C11.5417 12.7356 11.518 12.7119 11.4896 12.6955L2.86457 7.6644Z" fill="#1E1E1E"/>
  <path d="M13.0833 12.8907V22.3126C13.0833 22.3455 13.092 22.3778 13.1085 22.4063C13.125 22.4347 13.1486 22.4584 13.1771 22.4748C13.2056 22.4912 13.238 22.4999 13.2709 22.4999C13.3038 22.4999 13.3361 22.4912 13.3646 22.4748L20.9653 17.9171C21.3045 17.7197 21.5861 17.4369 21.7822 17.097C21.9784 16.7571 22.0821 16.3717 22.0833 15.9793V7.8282C22.0832 7.79534 22.0744 7.76309 22.0579 7.73468C22.0414 7.70627 22.0178 7.68269 21.9893 7.66631C21.9608 7.64993 21.9285 7.64133 21.8956 7.64136C21.8628 7.64139 21.8305 7.65005 21.8021 7.66648L13.1771 12.729C13.1487 12.7454 13.125 12.7689 13.1086 12.7973C13.0921 12.8257 13.0834 12.8579 13.0833 12.8907Z" fill="#1E1E1E"/>
</svg>