<svg xmlns="http://www.w3.org/2000/svg" width="24" height="24" viewBox="0 0 24 24" fill="none">
<path d="M20.25 21C20.1515 21.0001 20.0539 20.9808 19.9629 20.9431C19.8719 20.9053 19.7893 20.85 19.7198 20.7801L3.21982 4.28013C3.0851 4.13833 3.01111 3.94952 3.01361 3.75395C3.01612 3.55838 3.09492 3.37152 3.23322 3.23322C3.37152 3.09492 3.55838 3.01612 3.75395 3.01361C3.94952 3.01111 4.13833 3.0851 4.28013 3.21982L20.7801 19.7198C20.885 19.8247 20.9563 19.9583 20.9852 20.1038C21.0141 20.2492 20.9993 20.3999 20.9426 20.5369C20.8858 20.6739 20.7897 20.791 20.6665 20.8735C20.5432 20.9559 20.3983 20.9999 20.25 21Z" fill="#1E1E1E"/>
<path d="M11.984 18C10.0392 18 8.16371 17.4244 6.40965 16.2891C4.81261 15.2578 3.37496 13.7808 2.25183 12.0235V12.0197C3.18652 10.6805 4.21027 9.548 5.30996 8.63488C5.31991 8.62656 5.32802 8.61627 5.33379 8.60466C5.33956 8.59304 5.34285 8.58036 5.34347 8.56741C5.34409 8.55446 5.34201 8.54152 5.33737 8.52941C5.33273 8.5173 5.32563 8.50629 5.31652 8.49706L4.38277 7.56472C4.36618 7.54799 4.34389 7.53812 4.32035 7.53708C4.29682 7.53604 4.27375 7.5439 4.25574 7.55909C3.08761 8.54347 2.0034 9.75097 1.01761 11.1647C0.848014 11.4081 0.754608 11.6965 0.749266 11.9931C0.743924 12.2898 0.826888 12.5813 0.987615 12.8307C2.22558 14.768 3.81886 16.3997 5.59449 17.5486C7.59371 18.8438 9.74527 19.5 11.984 19.5C13.1924 19.4963 14.3923 19.2971 15.5371 18.9103C15.5522 18.9052 15.5658 18.8963 15.5765 18.8845C15.5872 18.8727 15.5947 18.8583 15.5983 18.8428C15.602 18.8273 15.6015 18.8111 15.5972 18.7957C15.5928 18.7804 15.5845 18.7664 15.5732 18.7552L14.5617 17.7436C14.5384 17.7209 14.5096 17.7046 14.4781 17.6964C14.4466 17.6882 14.4136 17.6883 14.3821 17.6968C13.5987 17.8985 12.793 18.0004 11.984 18Z" fill="#1E1E1E"/>
<path d="M23.0081 11.1844C21.7678 9.26625 20.1586 7.63688 18.3548 6.47203C16.3594 5.18203 14.1562 4.5 11.9841 4.5C10.7884 4.50212 9.60172 4.70543 8.47358 5.10141C8.45855 5.10664 8.4451 5.11561 8.4345 5.12747C8.42389 5.13934 8.41648 5.15371 8.41296 5.16923C8.40945 5.18475 8.40994 5.20091 8.41439 5.21619C8.41885 5.23147 8.42712 5.24536 8.43843 5.25656L9.44858 6.26672C9.4721 6.28984 9.5013 6.30634 9.53323 6.31457C9.56516 6.3228 9.5987 6.32246 9.63046 6.31359C10.3978 6.10602 11.1891 6.00058 11.9841 6C13.8914 6 15.7612 6.58266 17.5411 7.73438C19.1681 8.78438 20.6226 10.26 21.7486 12C21.7494 12.0011 21.7499 12.0024 21.7499 12.0037C21.7499 12.0051 21.7494 12.0064 21.7486 12.0075C20.9313 13.2942 19.9171 14.4446 18.743 15.4167C18.7329 15.425 18.7247 15.4353 18.7188 15.4469C18.713 15.4586 18.7096 15.4713 18.7089 15.4843C18.7083 15.4973 18.7103 15.5103 18.715 15.5225C18.7196 15.5347 18.7268 15.5457 18.7359 15.555L19.6687 16.4873C19.6852 16.504 19.7074 16.5139 19.7308 16.515C19.7543 16.5161 19.7773 16.5084 19.7953 16.4934C21.0487 15.4381 22.1337 14.1975 23.0128 12.8147C23.1682 12.571 23.2503 12.2878 23.2495 11.9988C23.2487 11.7098 23.1649 11.4272 23.0081 11.1844Z" fill="#1E1E1E"/>
<path d="M12 7.5C11.6629 7.49982 11.3269 7.53756 10.9983 7.6125C10.9817 7.61595 10.9663 7.62383 10.9538 7.63531C10.9414 7.64679 10.9322 7.66144 10.9274 7.6777C10.9226 7.69395 10.9223 7.71121 10.9265 7.72763C10.9308 7.74405 10.9393 7.75901 10.9514 7.77094L16.2291 13.0472C16.241 13.0592 16.2559 13.0678 16.2724 13.0721C16.2888 13.0763 16.306 13.076 16.3223 13.0712C16.3386 13.0663 16.3532 13.0572 16.3647 13.0447C16.3762 13.0323 16.384 13.0169 16.3875 13.0003C16.5378 12.3413 16.5376 11.6568 16.3871 10.9979C16.2365 10.3389 15.9395 9.72228 15.518 9.19385C15.0964 8.66542 14.5613 8.23874 13.9523 7.9455C13.3432 7.65226 12.6759 7.49999 12 7.5Z" fill="#1E1E1E"/>
<path d="M7.77091 10.953C7.75899 10.9409 7.74402 10.9323 7.7276 10.9281C7.71118 10.9239 7.69392 10.9242 7.67767 10.929C7.66141 10.9338 7.64676 10.943 7.63528 10.9554C7.6238 10.9679 7.61592 10.9833 7.61247 10.9999C7.44248 11.7425 7.46382 12.5162 7.67451 13.2483C7.88519 13.9805 8.27832 14.6472 8.81704 15.1859C9.35577 15.7246 10.0224 16.1178 10.7546 16.3284C11.4868 16.5391 12.2604 16.5605 13.0031 16.3905C13.0197 16.387 13.035 16.3792 13.0475 16.3677C13.06 16.3562 13.0691 16.3415 13.0739 16.3253C13.0787 16.309 13.0791 16.2918 13.0748 16.2754C13.0706 16.2589 13.062 16.244 13.05 16.232L7.77091 10.953Z" fill="#1E1E1E"/>
</svg>