<svg xmlns="http://www.w3.org/2000/svg" width="24" height="24" viewBox="0 0 24 24" fill="none">
  <path d="M12.1359 2.25017C6.65249 2.17611 2.17593 6.65267 2.24999 12.1361C2.32312 17.395 6.60515 21.677 11.8641 21.7502C17.3484 21.8252 21.8241 17.3486 21.7491 11.8652C21.6769 6.60533 17.3948 2.3233 12.1359 2.25017ZM18.0619 17.59C18.0432 17.6102 18.0203 17.626 17.9948 17.6364C17.9694 17.6468 17.9419 17.6514 17.9144 17.65C17.887 17.6485 17.8602 17.6411 17.8359 17.6281C17.8116 17.6152 17.7905 17.597 17.7741 17.575C17.3548 17.0265 16.8413 16.5568 16.2576 16.188C15.0642 15.422 13.552 15.0002 12 15.0002C10.448 15.0002 8.93577 15.422 7.74233 16.188C7.15868 16.5566 6.64522 17.0261 6.22593 17.5745C6.20946 17.5966 6.18834 17.6147 6.16408 17.6277C6.13982 17.6406 6.113 17.6481 6.08554 17.6495C6.05807 17.6509 6.03063 17.6463 6.00515 17.6359C5.97967 17.6256 5.95679 17.6097 5.93812 17.5895C4.56265 16.1047 3.7835 14.1645 3.74999 12.1408C3.67358 7.57939 7.41655 3.76142 11.9798 3.75017C16.5431 3.73892 20.25 7.44439 20.25 12.0002C20.2516 14.0727 19.47 16.0693 18.0619 17.59Z" fill="#1E1E1E"/>
  <path d="M12 6.75C11.0756 6.75 10.2399 7.09641 9.64596 7.72594C9.05205 8.35547 8.75534 9.22594 8.82237 10.1602C8.9583 12 10.3838 13.5 12 13.5C13.6163 13.5 15.0389 12 15.1777 10.1606C15.2471 9.23531 14.9527 8.37281 14.3489 7.73156C13.7527 7.09875 12.9183 6.75 12 6.75Z" fill="#1E1E1E"/>
</svg>