<svg xmlns="http://www.w3.org/2000/svg" width="24" height="25" viewBox="0 0 24 25">
  <path d="M21 16.5018V8.49739C20.9997 8.23541 20.9308 7.97807 20.8001 7.75101C20.6694 7.52394 20.4815 7.33506 20.2552 7.20317L13.1302 3.05661C12.7869 2.85675 12.3968 2.75146 11.9995 2.75146C11.6023 2.75146 11.2122 2.85675 10.8689 3.05661L3.74484 7.20317C3.51848 7.33506 3.33061 7.52394 3.19993 7.75101C3.06925 7.97807 3.00032 8.23541 3 8.49739V16.5018C3.00016 16.7639 3.06901 17.0214 3.1997 17.2487C3.33038 17.4759 3.51834 17.6649 3.74484 17.7969L10.8698 21.9435C11.2132 22.1431 11.6033 22.2482 12.0005 22.2482C12.3976 22.2482 12.7877 22.1431 13.1311 21.9435L20.2561 17.7969C20.4824 17.6648 20.6702 17.4758 20.8007 17.2485C20.9312 17.0213 20.9999 16.7638 21 16.5018Z"  stroke-width="1.5" stroke-linecap="round" stroke-linejoin="round"/>
  <path d="M3.23438 7.71838L12 12.8746L20.7656 7.71838" stroke="#1E1E1E" stroke-width="1.5" stroke-linecap="round" stroke-linejoin="round"/>
  <path d="M12 22.2496V12.8746" stroke="#1E1E1E" stroke-width="1.5" stroke-linecap="round" stroke-linejoin="round"/>
</svg>